<svg xmlns="http://www.w3.org/2000/svg" viewBox="0 0 100 100" aria-label="Lightboard logomark">
  
  <rect x="6" y="6" width="6" height="86" rx="3" fill="currentColor"></rect>
  
  <rect x="6" y="88" width="88" height="6" rx="3" fill="currentColor"></rect>
  
  <rect x="22.00" y="10.00" width="44.64" height="3.6" rx="1.8" fill="currentColor"></rect>
  <rect x="34.96" y="17.78" width="44.64" height="3.6" rx="1.8" fill="currentColor"></rect>
  <rect x="43.60" y="25.56" width="39.60" height="3.6" rx="1.8" fill="currentColor"></rect>
  <rect x="22.00" y="33.33" width="43.20" height="3.6" rx="1.8" fill="currentColor"></rect>
  <rect x="25.60" y="41.11" width="36.00" height="3.6" rx="1.8" fill="currentColor"></rect>
  <rect x="22.00" y="48.89" width="54.00" height="3.6" rx="1.8" fill="currentColor"></rect>
  <rect x="40.00" y="56.67" width="46.80" height="3.6" rx="1.8" fill="currentColor"></rect>
  <rect x="43.60" y="64.44" width="46.80" height="3.6" rx="1.8" fill="currentColor"></rect>
  <rect x="22.00" y="72.22" width="51.84" height="3.6" rx="1.8" fill="currentColor"></rect>
  <rect x="25.60" y="80.00" width="36.00" height="3.6" rx="1.8" fill="currentColor"></rect>
</svg>